<?xml version="1.0" encoding="UTF-8" standalone="no"?>
<!DOCTYPE svg PUBLIC "-//W3C//DTD SVG 1.1//EN"
 "http://www.w3.org/Graphics/SVG/1.1/DTD/svg11.dtd">
<!-- Generated by graphviz version 2.46.0 (20210118.1747)
 -->
<!-- Title: controllers_diagram Pages: 1 -->
<svg width="494pt" height="420pt"
 viewBox="0.00 0.00 494.00 420.00" xmlns="http://www.w3.org/2000/svg" xmlns:xlink="http://www.w3.org/1999/xlink">
<g id="graph0" class="graph" transform="scale(1 1) rotate(0) translate(4 416)">
<title>controllers_diagram</title>
<polygon fill="transparent" stroke="transparent" points="-4,4 -4,-416 490,-416 490,4 -4,4"/>
<!-- _diagram_info -->
<g id="node1" class="node">
<title>_diagram_info</title>
<text text-anchor="start" x="280" y="-239.6" font-family="Times,serif" font-size="13.00">Controllers diagram</text>
<text text-anchor="start" x="280" y="-225.6" font-family="Times,serif" font-size="13.00">Date: Feb 11 2021 &#45; 21:12</text>
<text text-anchor="start" x="280" y="-211.6" font-family="Times,serif" font-size="13.00">Migration version: 20210210175447</text>
<text text-anchor="start" x="280" y="-197.6" font-family="Times,serif" font-size="13.00">Generated by RailRoady 1.5.3</text>
<text text-anchor="start" x="280" y="-183.6" font-family="Times,serif" font-size="13.00">http://railroady.prestonlee.com</text>
</g>
<!-- ApplicationController -->
<g id="node2" class="node">
<title>ApplicationController</title>
<path fill="none" stroke="black" d="M284,-32.5C284,-32.5 454,-32.5 454,-32.5 460,-32.5 466,-38.5 466,-44.5 466,-44.5 466,-128.5 466,-128.5 466,-134.5 460,-140.5 454,-140.5 454,-140.5 284,-140.5 284,-140.5 278,-140.5 272,-134.5 272,-128.5 272,-128.5 272,-44.5 272,-44.5 272,-38.5 278,-32.5 284,-32.5"/>
<text text-anchor="middle" x="369" y="-125.3" font-family="Times,serif" font-size="14.00">ApplicationController</text>
<polyline fill="none" stroke="black" points="272,-117.5 466,-117.5 "/>
<polyline fill="none" stroke="black" points="272,-93.5 466,-93.5 "/>
<text text-anchor="start" x="280" y="-78.3" font-family="Times,serif" font-size="14.00">configure_permitted_parameters</text>
<polyline fill="none" stroke="black" points="272,-70.5 466,-70.5 "/>
<text text-anchor="start" x="280" y="-55.3" font-family="Times,serif" font-size="14.00">_layout</text>
<text text-anchor="start" x="280" y="-40.3" font-family="Times,serif" font-size="14.00">init_attachment</text>
</g>
<!-- TasksController -->
<g id="node3" class="node">
<title>TasksController</title>
<path fill="none" stroke="black" d="M140,-0.5C140,-0.5 220,-0.5 220,-0.5 226,-0.5 232,-6.5 232,-12.5 232,-12.5 232,-201.5 232,-201.5 232,-207.5 226,-213.5 220,-213.5 220,-213.5 140,-213.5 140,-213.5 134,-213.5 128,-207.5 128,-201.5 128,-201.5 128,-12.5 128,-12.5 128,-6.5 134,-0.5 140,-0.5"/>
<text text-anchor="middle" x="180" y="-198.3" font-family="Times,serif" font-size="14.00">TasksController</text>
<polyline fill="none" stroke="black" points="128,-190.5 232,-190.5 "/>
<text text-anchor="start" x="136" y="-175.3" font-family="Times,serif" font-size="14.00">create</text>
<text text-anchor="start" x="136" y="-160.3" font-family="Times,serif" font-size="14.00">destroy</text>
<text text-anchor="start" x="136" y="-145.3" font-family="Times,serif" font-size="14.00">edit</text>
<text text-anchor="start" x="136" y="-130.3" font-family="Times,serif" font-size="14.00">index</text>
<text text-anchor="start" x="136" y="-115.3" font-family="Times,serif" font-size="14.00">new</text>
<text text-anchor="start" x="136" y="-100.3" font-family="Times,serif" font-size="14.00">show</text>
<text text-anchor="start" x="136" y="-85.3" font-family="Times,serif" font-size="14.00">update</text>
<polyline fill="none" stroke="black" points="128,-77.5 232,-77.5 "/>
<polyline fill="none" stroke="black" points="128,-53.5 232,-53.5 "/>
<text text-anchor="start" x="136" y="-38.3" font-family="Times,serif" font-size="14.00">_layout</text>
<text text-anchor="start" x="136" y="-23.3" font-family="Times,serif" font-size="14.00">set_task</text>
<text text-anchor="start" x="136" y="-8.3" font-family="Times,serif" font-size="14.00">task_params</text>
</g>
<!-- CommentsController -->
<g id="node4" class="node">
<title>CommentsController</title>
<path fill="none" stroke="black" d="M124,-240.5C124,-240.5 232,-240.5 232,-240.5 238,-240.5 244,-246.5 244,-252.5 244,-252.5 244,-351.5 244,-351.5 244,-357.5 238,-363.5 232,-363.5 232,-363.5 124,-363.5 124,-363.5 118,-363.5 112,-357.5 112,-351.5 112,-351.5 112,-252.5 112,-252.5 112,-246.5 118,-240.5 124,-240.5"/>
<text text-anchor="middle" x="178" y="-348.3" font-family="Times,serif" font-size="14.00">CommentsController</text>
<polyline fill="none" stroke="black" points="112,-340.5 244,-340.5 "/>
<text text-anchor="start" x="120" y="-325.3" font-family="Times,serif" font-size="14.00">create</text>
<text text-anchor="start" x="120" y="-310.3" font-family="Times,serif" font-size="14.00">destroy</text>
<polyline fill="none" stroke="black" points="112,-302.5 244,-302.5 "/>
<polyline fill="none" stroke="black" points="112,-278.5 244,-278.5 "/>
<text text-anchor="start" x="120" y="-263.3" font-family="Times,serif" font-size="14.00">_layout</text>
<text text-anchor="start" x="120" y="-248.3" font-family="Times,serif" font-size="14.00">comment_params</text>
</g>
<!-- TagsController -->
<g id="node5" class="node">
<title>TagsController</title>
<path fill="none" stroke="black" d="M380,-288.5C380,-288.5 454,-288.5 454,-288.5 460,-288.5 466,-294.5 466,-300.5 466,-300.5 466,-399.5 466,-399.5 466,-405.5 460,-411.5 454,-411.5 454,-411.5 380,-411.5 380,-411.5 374,-411.5 368,-405.5 368,-399.5 368,-399.5 368,-300.5 368,-300.5 368,-294.5 374,-288.5 380,-288.5"/>
<text text-anchor="middle" x="417" y="-396.3" font-family="Times,serif" font-size="14.00">TagsController</text>
<polyline fill="none" stroke="black" points="368,-388.5 466,-388.5 "/>
<text text-anchor="start" x="376" y="-373.3" font-family="Times,serif" font-size="14.00">create</text>
<text text-anchor="start" x="376" y="-358.3" font-family="Times,serif" font-size="14.00">destroy</text>
<polyline fill="none" stroke="black" points="368,-350.5 466,-350.5 "/>
<polyline fill="none" stroke="black" points="368,-326.5 466,-326.5 "/>
<text text-anchor="start" x="376" y="-311.3" font-family="Times,serif" font-size="14.00">_layout</text>
<text text-anchor="start" x="376" y="-296.3" font-family="Times,serif" font-size="14.00">tag_params</text>
</g>
<!-- UsersController -->
<g id="node6" class="node">
<title>UsersController</title>
<path fill="none" stroke="black" d="M12,-80.5C12,-80.5 91,-80.5 91,-80.5 97,-80.5 103,-86.5 103,-92.5 103,-92.5 103,-191.5 103,-191.5 103,-197.5 97,-203.5 91,-203.5 91,-203.5 12,-203.5 12,-203.5 6,-203.5 0,-197.5 0,-191.5 0,-191.5 0,-92.5 0,-92.5 0,-86.5 6,-80.5 12,-80.5"/>
<text text-anchor="middle" x="51.5" y="-188.3" font-family="Times,serif" font-size="14.00">UsersController</text>
<polyline fill="none" stroke="black" points="0,-180.5 103,-180.5 "/>
<text text-anchor="start" x="8" y="-165.3" font-family="Times,serif" font-size="14.00">delete_avatar</text>
<text text-anchor="start" x="8" y="-150.3" font-family="Times,serif" font-size="14.00">index</text>
<text text-anchor="start" x="8" y="-135.3" font-family="Times,serif" font-size="14.00">show</text>
<polyline fill="none" stroke="black" points="0,-127.5 103,-127.5 "/>
<polyline fill="none" stroke="black" points="0,-103.5 103,-103.5 "/>
<text text-anchor="start" x="8" y="-88.3" font-family="Times,serif" font-size="14.00">_layout</text>
</g>
</g>
</svg>
