<?xml version="1.0" encoding="UTF-8" standalone="no"?>
<!DOCTYPE svg PUBLIC "-//W3C//DTD SVG 1.1//EN"
 "http://www.w3.org/Graphics/SVG/1.1/DTD/svg11.dtd">
<!-- Generated by graphviz version 2.46.0 (20210118.1747)
 -->
<!-- Title: models_diagram Pages: 1 -->
<svg width="1346pt" height="528pt"
 viewBox="0.00 0.00 1346.34 528.00" xmlns="http://www.w3.org/2000/svg" xmlns:xlink="http://www.w3.org/1999/xlink">
<g id="graph0" class="graph" transform="scale(1 1) rotate(0) translate(4 524)">
<title>models_diagram</title>
<polygon fill="transparent" stroke="transparent" points="-4,4 -4,-524 1342.34,-524 1342.34,4 -4,4"/>
<!-- _diagram_info -->
<g id="node1" class="node">
<title>_diagram_info</title>
<text text-anchor="start" x="8" y="-453.6" font-family="Times,serif" font-size="13.00">Models diagram</text>
<text text-anchor="start" x="8" y="-439.6" font-family="Times,serif" font-size="13.00">Date: Feb 11 2021 &#45; 21:12</text>
<text text-anchor="start" x="8" y="-425.6" font-family="Times,serif" font-size="13.00">Migration version: 20210210175447</text>
<text text-anchor="start" x="8" y="-411.6" font-family="Times,serif" font-size="13.00">Generated by RailRoady 1.5.3</text>
<text text-anchor="start" x="8" y="-397.6" font-family="Times,serif" font-size="13.00">http://railroady.prestonlee.com</text>
</g>
<!-- Project -->
<g id="node2" class="node">
<title>Project</title>
<path fill="none" stroke="black" d="M244,-376C244,-376 464,-376 464,-376 470,-376 476,-382 476,-388 476,-388 476,-470 476,-470 476,-476 470,-482 464,-482 464,-482 244,-482 244,-482 238,-482 232,-476 232,-470 232,-470 232,-388 232,-388 232,-382 238,-376 244,-376"/>
<text text-anchor="middle" x="354" y="-466.8" font-family="Times,serif" font-size="14.00">Project</text>
<polyline fill="none" stroke="black" points="232,-459 476,-459 "/>
<text text-anchor="start" x="240" y="-443.8" font-family="Times,serif" font-size="14.00">id :bigint</text>
<text text-anchor="start" x="240" y="-428.8" font-family="Times,serif" font-size="14.00">name :character varying</text>
<text text-anchor="start" x="240" y="-413.8" font-family="Times,serif" font-size="14.00">delivery :date</text>
<text text-anchor="start" x="240" y="-398.8" font-family="Times,serif" font-size="14.00">created_at :timestamp without time zone</text>
<text text-anchor="start" x="240" y="-383.8" font-family="Times,serif" font-size="14.00">updated_at :timestamp without time zone</text>
</g>
<!-- Tag -->
<g id="node3" class="node">
<title>Tag</title>
<path fill="none" stroke="black" d="M375,-98C375,-98 595,-98 595,-98 601,-98 607,-104 607,-110 607,-110 607,-192 607,-192 607,-198 601,-204 595,-204 595,-204 375,-204 375,-204 369,-204 363,-198 363,-192 363,-192 363,-110 363,-110 363,-104 369,-98 375,-98"/>
<text text-anchor="middle" x="485" y="-188.8" font-family="Times,serif" font-size="14.00">Tag</text>
<polyline fill="none" stroke="black" points="363,-181 607,-181 "/>
<text text-anchor="start" x="371" y="-165.8" font-family="Times,serif" font-size="14.00">id :bigint</text>
<text text-anchor="start" x="371" y="-150.8" font-family="Times,serif" font-size="14.00">tag :text</text>
<text text-anchor="start" x="371" y="-135.8" font-family="Times,serif" font-size="14.00">task_id :bigint</text>
<text text-anchor="start" x="371" y="-120.8" font-family="Times,serif" font-size="14.00">created_at :timestamp without time zone</text>
<text text-anchor="start" x="371" y="-105.8" font-family="Times,serif" font-size="14.00">updated_at :timestamp without time zone</text>
</g>
<!-- Team -->
<g id="node4" class="node">
<title>Team</title>
<path fill="none" stroke="black" d="M934,-383.5C934,-383.5 1154,-383.5 1154,-383.5 1160,-383.5 1166,-389.5 1166,-395.5 1166,-395.5 1166,-462.5 1166,-462.5 1166,-468.5 1160,-474.5 1154,-474.5 1154,-474.5 934,-474.5 934,-474.5 928,-474.5 922,-468.5 922,-462.5 922,-462.5 922,-395.5 922,-395.5 922,-389.5 928,-383.5 934,-383.5"/>
<text text-anchor="middle" x="1044" y="-459.3" font-family="Times,serif" font-size="14.00">Team</text>
<polyline fill="none" stroke="black" points="922,-451.5 1166,-451.5 "/>
<text text-anchor="start" x="930" y="-436.3" font-family="Times,serif" font-size="14.00">id :bigint</text>
<text text-anchor="start" x="930" y="-421.3" font-family="Times,serif" font-size="14.00">name :character varying</text>
<text text-anchor="start" x="930" y="-406.3" font-family="Times,serif" font-size="14.00">created_at :timestamp without time zone</text>
<text text-anchor="start" x="930" y="-391.3" font-family="Times,serif" font-size="14.00">updated_at :timestamp without time zone</text>
</g>
<!-- User -->
<g id="node7" class="node">
<title>User</title>
<path fill="none" stroke="black" d="M899.5,-0.5C899.5,-0.5 1188.5,-0.5 1188.5,-0.5 1194.5,-0.5 1200.5,-6.5 1200.5,-12.5 1200.5,-12.5 1200.5,-289.5 1200.5,-289.5 1200.5,-295.5 1194.5,-301.5 1188.5,-301.5 1188.5,-301.5 899.5,-301.5 899.5,-301.5 893.5,-301.5 887.5,-295.5 887.5,-289.5 887.5,-289.5 887.5,-12.5 887.5,-12.5 887.5,-6.5 893.5,-0.5 899.5,-0.5"/>
<text text-anchor="middle" x="1044" y="-286.3" font-family="Times,serif" font-size="14.00">User</text>
<polyline fill="none" stroke="black" points="887.5,-278.5 1200.5,-278.5 "/>
<text text-anchor="start" x="895.5" y="-263.3" font-family="Times,serif" font-size="14.00">team_id :bigint</text>
<text text-anchor="start" x="895.5" y="-248.3" font-family="Times,serif" font-size="14.00">email :character varying</text>
<text text-anchor="start" x="895.5" y="-233.3" font-family="Times,serif" font-size="14.00">encrypted_password :character varying</text>
<text text-anchor="start" x="895.5" y="-218.3" font-family="Times,serif" font-size="14.00">reset_password_token :character varying</text>
<text text-anchor="start" x="895.5" y="-203.3" font-family="Times,serif" font-size="14.00">reset_password_sent_at :timestamp without time zone</text>
<text text-anchor="start" x="895.5" y="-188.3" font-family="Times,serif" font-size="14.00">role :character varying</text>
<text text-anchor="start" x="895.5" y="-173.3" font-family="Times,serif" font-size="14.00">name :character varying</text>
<text text-anchor="start" x="895.5" y="-158.3" font-family="Times,serif" font-size="14.00">active :boolean</text>
<text text-anchor="start" x="895.5" y="-143.3" font-family="Times,serif" font-size="14.00">remember_created_at :timestamp without time zone</text>
<text text-anchor="start" x="895.5" y="-128.3" font-family="Times,serif" font-size="14.00">sign_in_count :integer</text>
<text text-anchor="start" x="895.5" y="-113.3" font-family="Times,serif" font-size="14.00">current_sign_in_at :timestamp without time zone</text>
<text text-anchor="start" x="895.5" y="-98.3" font-family="Times,serif" font-size="14.00">last_sign_in_at :timestamp without time zone</text>
<text text-anchor="start" x="895.5" y="-83.3" font-family="Times,serif" font-size="14.00">current_sign_in_ip :character varying</text>
<text text-anchor="start" x="895.5" y="-68.3" font-family="Times,serif" font-size="14.00">last_sign_in_ip :character varying</text>
<text text-anchor="start" x="895.5" y="-53.3" font-family="Times,serif" font-size="14.00">created_at :timestamp without time zone</text>
<text text-anchor="start" x="895.5" y="-38.3" font-family="Times,serif" font-size="14.00">updated_at :timestamp without time zone</text>
<text text-anchor="start" x="895.5" y="-23.3" font-family="Times,serif" font-size="14.00">is_admin :boolean</text>
<text text-anchor="start" x="895.5" y="-8.3" font-family="Times,serif" font-size="14.00">id :bigint</text>
</g>
<!-- Team&#45;&gt;User -->
<g id="edge1" class="edge">
<title>Team&#45;&gt;User</title>
<path fill="none" stroke="#13732a" d="M1044,-375.1C1044,-356.54 1044,-334.59 1044,-311.84"/>
<ellipse fill="none" stroke="#13732a" cx="1044" cy="-379.35" rx="4" ry="4"/>
<polygon fill="#13732a" stroke="#13732a" points="1044,-311.69 1048.5,-301.69 1044,-306.69 1044,-301.69 1044,-301.69 1044,-301.69 1044,-306.69 1039.5,-301.69 1044,-311.69 1044,-311.69"/>
</g>
<!-- Comment -->
<g id="node5" class="node">
<title>Comment</title>
<path fill="none" stroke="black" d="M637,-90.5C637,-90.5 857,-90.5 857,-90.5 863,-90.5 869,-96.5 869,-102.5 869,-102.5 869,-199.5 869,-199.5 869,-205.5 863,-211.5 857,-211.5 857,-211.5 637,-211.5 637,-211.5 631,-211.5 625,-205.5 625,-199.5 625,-199.5 625,-102.5 625,-102.5 625,-96.5 631,-90.5 637,-90.5"/>
<text text-anchor="middle" x="747" y="-196.3" font-family="Times,serif" font-size="14.00">Comment</text>
<polyline fill="none" stroke="black" points="625,-188.5 869,-188.5 "/>
<text text-anchor="start" x="633" y="-173.3" font-family="Times,serif" font-size="14.00">id :bigint</text>
<text text-anchor="start" x="633" y="-158.3" font-family="Times,serif" font-size="14.00">text :text</text>
<text text-anchor="start" x="633" y="-143.3" font-family="Times,serif" font-size="14.00">user_id :bigint</text>
<text text-anchor="start" x="633" y="-128.3" font-family="Times,serif" font-size="14.00">created_at :timestamp without time zone</text>
<text text-anchor="start" x="633" y="-113.3" font-family="Times,serif" font-size="14.00">updated_at :timestamp without time zone</text>
<text text-anchor="start" x="633" y="-98.3" font-family="Times,serif" font-size="14.00">task_id :bigint</text>
</g>
<!-- ApplicationRecord -->
<g id="node6" class="node">
<title>ApplicationRecord</title>
<ellipse fill="none" stroke="black" cx="1261" cy="-429" rx="77.19" ry="18"/>
<text text-anchor="middle" x="1261" y="-425.3" font-family="Times,serif" font-size="14.00">ApplicationRecord</text>
</g>
<!-- Task -->
<g id="node8" class="node">
<title>Task</title>
<path fill="none" stroke="black" d="M506,-338.5C506,-338.5 726,-338.5 726,-338.5 732,-338.5 738,-344.5 738,-350.5 738,-350.5 738,-507.5 738,-507.5 738,-513.5 732,-519.5 726,-519.5 726,-519.5 506,-519.5 506,-519.5 500,-519.5 494,-513.5 494,-507.5 494,-507.5 494,-350.5 494,-350.5 494,-344.5 500,-338.5 506,-338.5"/>
<text text-anchor="middle" x="616" y="-504.3" font-family="Times,serif" font-size="14.00">Task</text>
<polyline fill="none" stroke="black" points="494,-496.5 738,-496.5 "/>
<text text-anchor="start" x="502" y="-481.3" font-family="Times,serif" font-size="14.00">comment :text</text>
<text text-anchor="start" x="502" y="-466.3" font-family="Times,serif" font-size="14.00">summary :character varying</text>
<text text-anchor="start" x="502" y="-451.3" font-family="Times,serif" font-size="14.00">description :text</text>
<text text-anchor="start" x="502" y="-436.3" font-family="Times,serif" font-size="14.00">priority :character varying</text>
<text text-anchor="start" x="502" y="-421.3" font-family="Times,serif" font-size="14.00">created_by :integer</text>
<text text-anchor="start" x="502" y="-406.3" font-family="Times,serif" font-size="14.00">created_at :timestamp without time zone</text>
<text text-anchor="start" x="502" y="-391.3" font-family="Times,serif" font-size="14.00">updated_at :timestamp without time zone</text>
<text text-anchor="start" x="502" y="-376.3" font-family="Times,serif" font-size="14.00">project :integer</text>
<text text-anchor="start" x="502" y="-361.3" font-family="Times,serif" font-size="14.00">status :character varying</text>
<text text-anchor="start" x="502" y="-346.3" font-family="Times,serif" font-size="14.00">id :bigint</text>
</g>
<!-- Task&#45;&gt;Tag -->
<g id="edge2" class="edge">
<title>Task&#45;&gt;Tag</title>
<path fill="none" stroke="#b99547" d="M569.98,-331.04C551.38,-291.86 530.48,-247.81 514.05,-213.21"/>
<ellipse fill="none" stroke="#b99547" cx="571.75" cy="-334.78" rx="4" ry="4"/>
<polygon fill="#b99547" stroke="#b99547" points="514.05,-213.21 513.83,-202.24 511.91,-208.69 509.76,-204.17 509.76,-204.17 509.76,-204.17 511.91,-208.69 505.7,-206.1 514.05,-213.21 514.05,-213.21"/>
</g>
<!-- Task&#45;&gt;Comment -->
<g id="edge3" class="edge">
<title>Task&#45;&gt;Comment</title>
<path fill="none" stroke="#ae1220" d="M662.03,-331.02C679.3,-294.64 698.55,-254.08 714.36,-220.77"/>
<ellipse fill="none" stroke="#ae1220" cx="660.25" cy="-334.78" rx="4" ry="4"/>
<polygon fill="#ae1220" stroke="#ae1220" points="714.43,-220.61 722.79,-213.51 716.58,-216.1 718.72,-211.58 718.72,-211.58 718.72,-211.58 716.58,-216.1 714.66,-209.65 714.43,-220.61 714.43,-220.61"/>
</g>
</g>
</svg>
