<?xml version="1.0" encoding="UTF-8" standalone="no"?>
<!DOCTYPE svg PUBLIC "-//W3C//DTD SVG 1.1//EN"
 "http://www.w3.org/Graphics/SVG/1.1/DTD/svg11.dtd">
<!-- Generated by graphviz version 2.46.0 (20210118.1747)
 -->
<!-- Title: models_diagram Pages: 1 -->
<svg width="698pt" height="158pt"
 viewBox="0.00 0.00 698.34 158.00" xmlns="http://www.w3.org/2000/svg" xmlns:xlink="http://www.w3.org/1999/xlink">
<g id="graph0" class="graph" transform="scale(1 1) rotate(0) translate(4 154)">
<title>models_diagram</title>
<polygon fill="transparent" stroke="transparent" points="-4,4 -4,-154 694.34,-154 694.34,4 -4,4"/>
<!-- _diagram_info -->
<g id="node1" class="node">
<title>_diagram_info</title>
<text text-anchor="start" x="8" y="-135.6" font-family="Times,serif" font-size="13.00">Models diagram</text>
<text text-anchor="start" x="8" y="-121.6" font-family="Times,serif" font-size="13.00">Date: Feb 11 2021 &#45; 21:12</text>
<text text-anchor="start" x="8" y="-107.6" font-family="Times,serif" font-size="13.00">Migration version: 20210210175447</text>
<text text-anchor="start" x="8" y="-93.6" font-family="Times,serif" font-size="13.00">Generated by RailRoady 1.5.3</text>
<text text-anchor="start" x="8" y="-79.6" font-family="Times,serif" font-size="13.00">http://railroady.prestonlee.com</text>
</g>
<!-- Project -->
<g id="node2" class="node">
<title>Project</title>
<ellipse fill="none" stroke="black" cx="268" cy="-111" rx="36" ry="18"/>
<text text-anchor="middle" x="268" y="-107.3" font-family="Times,serif" font-size="14.00">Project</text>
</g>
<!-- Tag -->
<g id="node3" class="node">
<title>Tag</title>
<ellipse fill="none" stroke="black" cx="304" cy="-18" rx="27" ry="18"/>
<text text-anchor="middle" x="304" y="-14.3" font-family="Times,serif" font-size="14.00">Tag</text>
</g>
<!-- Team -->
<g id="node4" class="node">
<title>Team</title>
<ellipse fill="none" stroke="black" cx="486" cy="-111" rx="31.4" ry="18"/>
<text text-anchor="middle" x="486" y="-107.3" font-family="Times,serif" font-size="14.00">Team</text>
</g>
<!-- User -->
<g id="node7" class="node">
<title>User</title>
<ellipse fill="none" stroke="black" cx="486" cy="-18" rx="27.1" ry="18"/>
<text text-anchor="middle" x="486" y="-14.3" font-family="Times,serif" font-size="14.00">User</text>
</g>
<!-- Team&#45;&gt;User -->
<g id="edge1" class="edge">
<title>Team&#45;&gt;User</title>
<path fill="none" stroke="#4f7b33" d="M486,-84.73C486,-72.72 486,-58.36 486,-46.13"/>
<ellipse fill="none" stroke="#4f7b33" cx="486" cy="-88.88" rx="4" ry="4"/>
<polygon fill="#4f7b33" stroke="#4f7b33" points="486,-46.04 490.5,-36.04 486,-41.04 486,-36.04 486,-36.04 486,-36.04 486,-41.04 481.5,-36.04 486,-46.04 486,-46.04"/>
</g>
<!-- Comment -->
<g id="node5" class="node">
<title>Comment</title>
<ellipse fill="none" stroke="black" cx="395" cy="-18" rx="46.29" ry="18"/>
<text text-anchor="middle" x="395" y="-14.3" font-family="Times,serif" font-size="14.00">Comment</text>
</g>
<!-- ApplicationRecord -->
<g id="node6" class="node">
<title>ApplicationRecord</title>
<ellipse fill="none" stroke="black" cx="613" cy="-111" rx="77.19" ry="18"/>
<text text-anchor="middle" x="613" y="-107.3" font-family="Times,serif" font-size="14.00">ApplicationRecord</text>
</g>
<!-- Task -->
<g id="node8" class="node">
<title>Task</title>
<ellipse fill="none" stroke="black" cx="350" cy="-111" rx="27.9" ry="18"/>
<text text-anchor="middle" x="350" y="-107.3" font-family="Times,serif" font-size="14.00">Task</text>
</g>
<!-- Task&#45;&gt;Tag -->
<g id="edge2" class="edge">
<title>Task&#45;&gt;Tag</title>
<path fill="none" stroke="#27033c" d="M338.02,-86.31C331.52,-73.45 323.48,-57.54 316.85,-44.41"/>
<ellipse fill="none" stroke="#27033c" cx="339.97" cy="-90.16" rx="4" ry="4"/>
<polygon fill="#27033c" stroke="#27033c" points="316.82,-44.36 316.32,-33.4 314.56,-39.9 312.31,-35.43 312.31,-35.43 312.31,-35.43 314.56,-39.9 308.29,-37.47 316.82,-44.36 316.82,-44.36"/>
</g>
<!-- Task&#45;&gt;Comment -->
<g id="edge3" class="edge">
<title>Task&#45;&gt;Comment</title>
<path fill="none" stroke="#c64a3e" d="M361.69,-86.36C368.01,-73.58 375.82,-57.79 382.29,-44.71"/>
<ellipse fill="none" stroke="#c64a3e" cx="359.82" cy="-90.15" rx="4" ry="4"/>
<polygon fill="#c64a3e" stroke="#c64a3e" points="382.29,-44.71 390.75,-37.74 384.5,-40.23 386.72,-35.74 386.72,-35.74 386.72,-35.74 384.5,-40.23 382.69,-33.75 382.29,-44.71 382.29,-44.71"/>
</g>
</g>
</svg>
